<svg width="129" height="31" viewBox="0 0 129 31" fill="none" xmlns="http://www.w3.org/2000/svg">
<path d="M37.7757 27.0213H36.2707C35.7518 27.0213 35.2847 26.7341 35.0252 26.2903L19.9498 0H9.44109L11.4909 3.57673H12.9699C13.4889 3.57673 13.9559 3.86391 14.2154 4.30774L29.3168 30.598H39.8515L37.7757 27.0213ZM23.7122 27.9611L16.7064 15.7167L17.7183 13.9414L17.0956 12.871L17.0696 12.8449L16.3431 11.5656L14.3711 15.0118C14.1116 15.4556 14.1116 16.0039 14.3711 16.4477L20.4168 26.9952H5.47114L15.3571 9.79031L13.3073 6.21358L0.125969 29.136C-0.237295 29.7887 0.229758 30.5719 0.956286 30.5719H25.1912L23.7122 27.9611Z" fill="#808080"/>
<path d="M47.7327 9.22717H48.7706L53.2076 19.4613H51.8324L50.7166 16.8767H45.7607L44.6449 19.4613H43.2957L47.7327 9.22717ZM46.2537 15.7279H50.2236L48.2257 11.1069L46.2537 15.7279Z" fill="#808080"/>
<path d="M59.7723 13.065H56.5807V13.4044C56.5807 18.4431 55.3612 19.6702 53.5968 19.4613V18.2865C54.5568 18.2865 55.3871 17.8687 55.3871 13.4305V11.864H60.9918V19.4352H59.7723V13.065Z" fill="#808080"/>
<path d="M62.7562 11.8901H63.8719L66.6483 15.5974L69.3728 11.8901H70.4107V19.4613H69.1912V14.031L66.6483 17.5294L63.9757 14.031V19.4613H62.7562V11.8901Z" fill="#808080"/>
<path d="M72.3049 12.8039C73.0055 12.1512 74.199 11.7335 75.3148 11.7335C77.3387 11.7335 78.4025 12.8561 78.4025 14.8142V19.4613H77.183V18.3387C76.7419 18.9914 75.8597 19.5658 74.5363 19.5658C72.9017 19.5658 71.8119 18.652 71.8119 17.2422C71.8119 15.5974 73.239 14.8925 75.4186 14.8925C75.9894 14.8925 76.8197 14.997 77.183 15.1014C77.183 13.7438 76.7419 12.8561 75.1591 12.8561C74.3028 12.8561 73.6022 13.1694 72.9276 13.6916L72.3049 12.8039ZM77.183 16.9811V16.1979C76.7938 16.0674 76.197 15.989 75.5742 15.989C74.0433 15.989 73.1092 16.3023 73.1092 17.2161C73.1092 17.9993 73.8098 18.4693 74.8477 18.4693C76.0932 18.4431 76.9235 17.5816 77.183 16.9811Z" fill="#808080"/>
<path d="M79.648 17.8688L80.608 17.19C81.0232 17.921 81.9054 18.4693 83.073 18.4693C84.2407 18.4693 85.1229 17.9993 85.1229 17.1639C85.1229 16.4851 84.578 16.1718 83.6179 16.1718H81.8535V15.0753H83.5401C84.2407 15.0753 84.8634 14.6576 84.8634 13.9788C84.8634 13.2216 84.059 12.8561 83.0212 12.8561C81.8535 12.8561 81.2308 13.3783 80.7897 13.9265L79.8815 13.3261C80.3226 12.569 81.4124 11.7335 83.1249 11.7335C85.045 11.7335 86.1348 12.5429 86.1348 13.796C86.1348 14.4748 85.8494 15.0492 85.2267 15.4147C86.1348 15.8585 86.3943 16.3807 86.3943 17.1378C86.3943 18.7303 84.9413 19.618 83.0471 19.618C81.3086 19.618 80.2967 18.9131 79.648 17.8688Z" fill="#808080"/>
<path d="M91.5838 9.27942H98.7972V10.5065H92.9071V19.4613H91.5838V9.27942Z" fill="#808080"/>
<path d="M97.7852 11.8902H99.0048V12.83C99.5497 12.0207 100.536 11.7074 101.444 11.7074C103.675 11.7074 105.051 13.3 105.051 15.5452C105.051 17.8688 103.52 19.5919 101.314 19.5919C100.354 19.5919 99.5756 19.383 99.0307 18.8086V22.3593H97.8112V11.8902H97.7852ZM99.0048 14.4487V17.2683C99.4718 18.1037 100.302 18.4431 101.184 18.4431C102.663 18.4431 103.753 17.2683 103.753 15.6235C103.753 13.9265 102.819 12.8561 101.314 12.8561C100.121 12.8561 99.2902 13.6655 99.0048 14.4487Z" fill="#808080"/>
<path d="M106.997 21.2888C107.1 21.3411 107.204 21.3672 107.308 21.3672C107.853 21.3672 108.242 20.9755 108.761 19.7746L108.995 19.2002L105.362 11.8901H106.789L109.617 17.6338L111.745 11.8901H113.068L110.214 19.3569C109.176 21.9154 108.398 22.542 107.36 22.542C107.048 22.542 106.763 22.4898 106.53 22.3592L106.997 21.2888Z" fill="#808080"/>
<path d="M119.477 13.0389H115.222V19.4613H114.002V11.8901H120.697V19.4613H119.477V13.0389Z" fill="#808080"/>
<path d="M127.78 13.0389H123.525V19.4613H122.306V11.8901H129V19.4613H127.78V13.0389Z" fill="#808080"/>
</svg>
