<svg width="224" height="54" viewBox="0 0 224 54" fill="none" xmlns="http://www.w3.org/2000/svg">
<path d="M65.595 46.9206H62.9817C62.0806 46.9206 61.2696 46.422 60.819 45.6513L34.6415 0H16.3938L19.9533 6.21075H22.5215C23.4226 6.21075 24.2336 6.70943 24.6841 7.4801L50.9067 53.1314H69.1995L65.595 46.9206ZM41.1746 48.5527L29.0095 27.291L30.7667 24.2083L29.6854 22.3496L29.6403 22.3043L28.3787 20.0829L24.9545 26.067C24.5039 26.8377 24.5039 27.7897 24.9545 28.5604L35.4525 46.8753H9.50027L26.6666 17.0002L23.1072 10.7895L0.218736 50.5927C-0.412047 51.726 0.39896 53.0861 1.66053 53.0861H43.7428L41.1746 48.5527Z" fill="#808080"/>
<path d="M82.8846 16.0225H84.6869L92.3914 33.7934H90.0035L88.0661 29.3053H79.4604L77.523 33.7934H75.1801L82.8846 16.0225ZM80.3164 27.3106H87.21L83.7407 19.2865L80.3164 27.3106Z" fill="#808080"/>
<path d="M103.791 22.6864H98.2487V23.2758C98.2487 32.0252 96.1311 34.1559 93.0673 33.7933V31.7532C94.7343 31.7532 96.1761 31.0279 96.1761 23.3211V20.6011H105.908V33.7479H103.791V22.6864Z" fill="#808080"/>
<path d="M108.972 20.6465H110.909L115.73 27.0839L120.461 20.6465H122.264V33.7933H120.146V24.3639L115.73 30.4386L111.09 24.3639V33.7933H108.972V20.6465Z" fill="#808080"/>
<path d="M125.553 22.2332C126.769 21.0999 128.842 20.3745 130.779 20.3745C134.294 20.3745 136.141 22.3239 136.141 25.7239V33.7934H134.023V31.844C133.257 32.9773 131.725 33.9747 129.427 33.9747C126.589 33.9747 124.697 32.388 124.697 29.94C124.697 27.0839 127.175 25.8599 130.959 25.8599C131.951 25.8599 133.392 26.0413 134.023 26.2226C134.023 23.8652 133.257 22.3239 130.509 22.3239C129.022 22.3239 127.805 22.8679 126.634 23.7746L125.553 22.2332ZM134.023 29.4866V28.1266C133.347 27.8999 132.311 27.7639 131.23 27.7639C128.571 27.7639 126.949 28.308 126.949 29.8946C126.949 31.2547 128.166 32.0707 129.968 32.0707C132.131 32.0253 133.573 30.5293 134.023 29.4866Z" fill="#808080"/>
<path d="M138.303 31.028L139.971 29.8493C140.691 31.1187 142.223 32.0707 144.251 32.0707C146.278 32.0707 147.81 31.2547 147.81 29.804C147.81 28.6253 146.864 28.0813 145.197 28.0813H142.133V26.1773H145.062C146.278 26.1773 147.36 25.4519 147.36 24.2732C147.36 22.9585 145.963 22.3239 144.161 22.3239C142.133 22.3239 141.052 23.2305 140.286 24.1826L138.709 23.1399C139.475 21.8252 141.367 20.3745 144.341 20.3745C147.675 20.3745 149.567 21.7799 149.567 23.9559C149.567 25.1346 149.072 26.1319 147.991 26.7666C149.567 27.5373 150.018 28.444 150.018 29.7586C150.018 32.524 147.495 34.0654 144.206 34.0654C141.187 34.0654 139.43 32.8413 138.303 31.028Z" fill="#808080"/>
<path d="M159.029 16.113H171.555V18.2437H161.327V33.7933H159.029V16.113Z" fill="#808080"/>
<path d="M169.798 20.6464H171.915V22.2785C172.861 20.8731 174.574 20.3291 176.151 20.3291C180.025 20.3291 182.413 23.0945 182.413 26.9932C182.413 31.0279 179.755 34.02 175.925 34.02C174.258 34.02 172.906 33.6573 171.96 32.6599V38.8254H169.843V20.6464H169.798ZM171.915 25.0892V29.9852C172.726 31.4359 174.168 32.0253 175.7 32.0253C178.268 32.0253 180.161 29.9852 180.161 27.1292C180.161 24.1825 178.538 22.3238 175.925 22.3238C173.853 22.3238 172.411 23.7291 171.915 25.0892Z" fill="#808080"/>
<path d="M185.793 36.9667C185.973 37.0574 186.153 37.1027 186.333 37.1027C187.279 37.1027 187.955 36.4227 188.856 34.3373L189.262 33.34L182.954 20.6465H185.432L190.343 30.62L194.038 20.6465H196.336L191.379 33.612C189.577 38.0547 188.226 39.1427 186.423 39.1427C185.883 39.1427 185.387 39.0521 184.981 38.8254L185.793 36.9667Z" fill="#808080"/>
<path d="M207.464 22.6412H200.075V33.7933H197.958V20.6465H209.582V33.7933H207.464V22.6412Z" fill="#808080"/>
<path d="M221.882 22.6412H214.493V33.7933H212.376V20.6465H224V33.7933H221.882V22.6412Z" fill="#808080"/>
</svg>
