<svg width="141" height="22" viewBox="0 0 141 22" fill="none" xmlns="http://www.w3.org/2000/svg">
<path fill-rule="evenodd" clip-rule="evenodd" d="M127.623 16.4816H132.957V0H127.623V16.4816ZM140.8 0V16.4816H135.466V0H140.8ZM11.7739 6.40199H7.45951V0H0.399994V16.4816H7.45951V8.30924H11.7739V16.4816H18.8326V0H11.7739V6.40199ZM44.9124 6.12962L44.4809 5.03949H38.6768V16.4816H44.4809V9.60267C44.4809 8.10463 45.5788 7.28687 46.5206 7.28687C47.3041 7.28687 48.3239 7.42305 48.3239 8.92174V16.4816H54.1279V9.05792C54.1287 4.90396 48.7562 3.26909 44.9124 6.12962ZM104.523 11.68L101.818 5.04015H97.8576L95.1507 11.953L92.3275 5.04015H84.5618L81.7784 10.8635L77.8557 5.04015H71.2277L79.0325 16.6185L78.0126 18.7981C77.6591 19.479 76.8149 19.5129 76.6483 18.8658C76.6483 18.304 76.3912 17.7652 75.9337 17.3679C75.4762 16.9707 74.8556 16.7475 74.2085 16.7475C73.5615 16.7475 72.9409 16.9707 72.4834 17.3679C72.0259 17.7652 71.7688 18.304 71.7688 18.8658C71.7778 20.0922 73.1894 21.6925 75.9744 21.5908C78.7578 21.4885 79.9345 19.4797 80.3277 18.628L86.7771 5.08576L91.4262 16.4829H95.661L98.2493 9.91087L100.917 16.4829H104.917L109.427 5.0408H107.113L104.523 11.68ZM28.8332 4.45826C24.392 4.45826 20.7913 7.32531 20.7913 10.8629C20.7913 14.4004 24.392 17.2675 28.8332 17.2675C33.2743 17.2675 36.8758 14.4004 36.8758 10.8629C36.8758 7.32531 33.2751 4.45826 28.8332 4.45826ZM30.8339 13.8583C30.8339 14.3189 30.6231 14.7607 30.248 15.0864C29.8728 15.4121 29.3641 15.5951 28.8335 15.5951C28.303 15.5951 27.7942 15.4121 27.4191 15.0864C27.0439 14.7607 26.8332 14.3189 26.8332 13.8583V7.8668C26.8332 7.40616 27.0439 6.96438 27.4191 6.63866C27.7942 6.31294 28.303 6.12995 28.8335 6.12995C29.3641 6.12995 29.8728 6.31294 30.248 6.63866C30.6231 6.96438 30.8339 7.40616 30.8339 7.8668V13.8583Z" fill="#808080"/>
<path fill-rule="evenodd" clip-rule="evenodd" d="M71.8709 11.7816C71.9136 11.5145 71.9354 11.1398 71.9354 10.8629C71.9354 7.32532 68.3355 4.45825 63.8943 4.45825C59.4531 4.45825 55.8517 7.32532 55.8517 10.8629C55.8517 14.4005 59.4524 17.2675 63.8943 17.2675C66.9464 17.2675 69.6007 15.9141 70.9636 13.9189L69.1873 13.3475C68.1141 14.7725 66.1449 15.7258 63.8943 15.7258C62.7896 15.7258 61.8936 14.8175 61.8936 13.8583V11.7816H71.8709ZM61.8936 7.8668C61.8936 7.40616 62.1043 6.96438 62.4795 6.63866C62.8546 6.31294 63.3634 6.12994 63.8939 6.12994C64.4244 6.12994 64.9332 6.31294 65.3084 6.63866C65.6835 6.96438 65.8943 7.40616 65.8943 7.8668V10.1474H61.8936V7.8668ZM125.6 11.7816C125.643 11.5145 125.665 11.1398 125.665 10.8629C125.665 7.32532 122.063 4.45825 117.622 4.45825C113.181 4.45825 109.58 7.32532 109.58 10.8629C109.58 14.4005 113.181 17.2675 117.622 17.2675C120.674 17.2675 123.329 15.9141 124.691 13.9189L122.915 13.3475C121.842 14.7725 119.874 15.7258 117.622 15.7258C116.517 15.7258 115.622 14.8175 115.622 13.8583V11.7816H125.6ZM115.622 7.8668C115.622 6.90764 116.517 6.13027 117.622 6.13027C118.728 6.13027 119.623 6.90764 119.623 7.8668V10.1474H115.622V7.8668Z" fill="#808080"/>
</svg>
