<svg width="89" height="14" viewBox="0 0 89 14" fill="none" xmlns="http://www.w3.org/2000/svg">
<path fill-rule="evenodd" clip-rule="evenodd" d="M80.1855 10.6848H83.5476V0H80.1855V10.6848ZM88.4908 0V10.6848H85.1288V0H88.4908ZM7.16868 4.15031H4.44944V0H0V10.6848H4.44944V5.38675H7.16868V10.6848H11.6177V0H7.16868V4.15031ZM28.0551 3.97374L27.7831 3.26702H24.125V10.6848H27.7831V6.22526C27.7831 5.25411 28.4751 4.72397 29.0687 4.72397C29.5625 4.72397 30.2053 4.81225 30.2053 5.78382V10.6848H33.8635V5.87211C33.8639 3.17916 30.4778 2.1193 28.0551 3.97374ZM65.6263 7.57195L63.9212 3.26745H61.4252L59.7191 7.74894L57.9397 3.26745H53.0452L51.2909 7.04265L48.8185 3.26745H44.6411L49.5602 10.7735L48.9174 12.1865C48.6946 12.6279 48.1625 12.6499 48.0575 12.2304C48.0575 11.8662 47.8955 11.5169 47.6071 11.2594C47.3187 11.0018 46.9276 10.8571 46.5198 10.8571C46.112 10.8571 45.7209 11.0018 45.4325 11.2594C45.1441 11.5169 44.9821 11.8662 44.9821 12.2304C44.9878 13.0254 45.8775 14.0629 47.6328 13.997C49.3871 13.9307 50.1287 12.6284 50.3766 12.0763L54.4415 3.29702L57.3717 10.6856H60.0408L61.6721 6.42507L63.3536 10.6856H65.8747L68.7174 3.26787H67.2586L65.6263 7.57195ZM17.9208 2.89022C15.1216 2.89022 12.8522 4.74889 12.8522 7.04223C12.8522 9.33557 15.1216 11.1942 17.9208 11.1942C20.7199 11.1942 22.9898 9.33557 22.9898 7.04223C22.9898 4.74889 20.7204 2.89022 17.9208 2.89022ZM19.1818 8.98411C19.1818 9.28274 19.0489 9.56913 18.8125 9.78029C18.576 9.99145 18.2554 10.1101 17.921 10.1101C17.5866 10.1101 17.2659 9.99145 17.0295 9.78029C16.7931 9.56913 16.6602 9.28274 16.6602 8.98411V5.09992C16.6602 4.8013 16.7931 4.5149 17.0295 4.30374C17.2659 4.09258 17.5866 3.97395 17.921 3.97395C18.2554 3.97395 18.576 4.09258 18.8125 4.30374C19.0489 4.5149 19.1818 4.8013 19.1818 5.09992V8.98411Z" fill="#808080"/>
<path fill-rule="evenodd" clip-rule="evenodd" d="M45.0464 7.6379C45.0734 7.46471 45.0871 7.22181 45.0871 7.04228C45.0871 4.74893 42.8181 2.89026 40.019 2.89026C37.2198 2.89026 34.9499 4.74893 34.9499 7.04228C34.9499 9.33563 37.2193 11.1943 40.019 11.1943C41.9426 11.1943 43.6156 10.3169 44.4746 9.02346L43.355 8.65299C42.6786 9.57684 41.4375 10.1948 40.019 10.1948C39.3227 10.1948 38.758 9.60598 38.758 8.98417V7.6379H45.0464ZM38.758 5.09997C38.758 4.80134 38.8908 4.51494 39.1272 4.30378C39.3637 4.09262 39.6843 3.97399 40.0187 3.97399C40.3531 3.97399 40.6738 4.09262 40.9102 4.30378C41.1467 4.51494 41.2795 4.80134 41.2795 5.09997V6.57846H38.758V5.09997ZM78.9108 7.6379C78.9378 7.46471 78.9515 7.22181 78.9515 7.04228C78.9515 4.74893 76.6816 2.89026 73.8824 2.89026C71.0832 2.89026 68.8133 4.74893 68.8133 7.04228C68.8133 9.33563 71.0832 11.1943 73.8824 11.1943C75.8056 11.1943 77.4795 10.3169 78.338 9.02346L77.2184 8.65299C76.5421 9.57684 75.3014 10.1948 73.8824 10.1948C73.1857 10.1948 72.6214 9.60598 72.6214 8.98417V7.6379H78.9108ZM72.6214 5.09997C72.6214 4.47816 73.1857 3.9742 73.8824 3.9742C74.5791 3.9742 75.1434 4.47816 75.1434 5.09997V6.57846H72.6214V5.09997Z" fill="#808080"/>
</svg>
